<svg width="149" height="28" viewBox="0 0 149 28" fill="none" xmlns="http://www.w3.org/2000/svg">
<g clip-path="url(#clip0_14_2)">
<path d="M4.72894 16.5079V2.12948H0V20.6084H10.6225V16.5079H4.72894ZM14.6103 6.28284C15.9337 6.28284 17.0454 5.1741 17.0454 3.85418C17.0454 2.53426 15.9337 1.44312 14.6103 1.44312C13.2869 1.44312 12.1753 2.53426 12.1753 3.85418C12.1753 5.1741 13.2869 6.28284 14.6103 6.28284ZM12.3341 20.6084H16.9042V8.28913H12.3341V20.6084ZM34.4966 24.0578C33.7202 24.0578 33.2261 23.4419 33.2261 22.4563V8.28913H28.656V9.18668C27.8267 8.48272 26.7503 8.04274 25.4445 8.04274C22.0919 8.04274 19.4628 10.841 19.4628 14.4488C19.4628 18.0566 22.0919 20.8548 25.4445 20.8548C26.7503 20.8548 27.8267 20.4324 28.656 19.7109V23.0195C28.656 25.8177 31.0734 28 33.9143 28C34.5848 28 35.2377 27.8768 35.6788 27.7536V24.0578H34.4966ZM26.5033 16.8774C25.1093 16.8774 24.0329 15.8391 24.0329 14.4488C24.0329 13.0585 25.1093 12.0201 26.5033 12.0201C27.8267 12.0201 28.9383 13.0585 28.9383 14.4488C28.9383 15.8391 27.8267 16.8774 26.5033 16.8774ZM42.5958 20.8548C46.6719 20.8548 48.7893 18.8837 48.7893 15.7687V8.28913H44.2192V15.1879C44.2192 16.1383 43.5133 16.8774 42.5958 16.8774C41.6959 16.8774 41.0077 16.1383 41.0077 15.1879V8.28913H36.4199V15.7687C36.4199 18.8837 38.5374 20.8548 42.5958 20.8548ZM54.2593 6.28284C55.5827 6.28284 56.6944 5.1741 56.6944 3.85418C56.6944 2.53426 55.5827 1.44312 54.2593 1.44312C52.9359 1.44312 51.8243 2.53426 51.8243 3.85418C51.8243 5.1741 52.9359 6.28284 54.2593 6.28284ZM51.9655 20.6084H56.5532V8.28913H51.9655V20.6084ZM68.305 0.0351981V9.18668C67.4757 8.48272 66.3993 8.04274 65.0936 8.04274C61.741 8.04274 59.1118 10.841 59.1118 14.4488C59.1118 18.0566 61.741 20.8548 65.0936 20.8548C66.3993 20.8548 67.4757 20.4324 68.305 19.7109V20.6436L72.8751 20.6084V0L68.305 0.0351981ZM66.1523 16.8774C64.7583 16.8774 63.6819 15.8391 63.6819 14.4488C63.6819 13.0585 64.7583 12.0201 66.1523 12.0201C67.4757 12.0201 68.5873 13.0585 68.5873 14.4488C68.5873 15.8391 67.4757 16.8774 66.1523 16.8774ZM95.3553 6.23004V2.12948H83.8682V20.6084H95.3553V16.5079H88.5971V13.4104H94.3142V9.34507H88.5971V6.23004H95.3553ZM112.065 16.9126C111.571 16.9126 111.024 16.8246 111.024 15.8391V8.28913H106.454V9.18668C105.607 8.48272 104.531 8.04274 103.243 8.04274C99.8725 8.04274 97.2433 10.841 97.2433 14.4488C97.2433 18.0566 99.8725 20.8548 103.243 20.8548C105.025 20.8548 106.419 20.0629 107.319 18.7253C108.201 20.0277 109.683 20.8548 111.448 20.8548C111.854 20.8548 112.224 20.7316 112.507 20.6084V16.9126H112.065ZM104.284 16.8774C102.89 16.8774 101.813 15.8391 101.813 14.4488C101.813 13.0585 102.89 12.0201 104.284 12.0201C105.607 12.0201 106.719 13.0585 106.719 14.4488C106.719 14.66 106.701 14.8887 106.631 15.0647L106.507 15.4343C106.137 16.2967 105.272 16.8774 104.284 16.8774ZM122.564 8.04274C121.206 8.04274 120.059 8.7819 119.282 10.0138V8.28913H114.73V20.6084H119.282V14.9415C119.282 13.0057 120.553 12.0201 122.37 12.0201C122.864 12.0201 123.305 12.0729 123.623 12.1433V8.20113C123.341 8.11314 122.935 8.04274 122.564 8.04274ZM133.893 11.6857V8.28913H131.052V3.76618H126.482V8.28913H124.417V11.6857H126.482V15.8743C126.482 18.6725 128.899 20.8548 131.74 20.8548C132.64 20.8548 133.522 20.6788 133.84 20.45V16.9126H132.322C131.546 16.9126 131.052 16.2967 131.052 15.3111V11.6857H133.893ZM144.374 8.04274C142.821 8.04274 141.533 8.8171 140.633 10.0842V0H136.063V20.6084H140.633V13.956C140.633 13.0057 141.427 12.0201 142.539 12.0201C143.527 12.0201 144.18 12.7945 144.18 13.6744V20.6084H148.75V12.8121C148.75 10.0842 146.844 8.04274 144.374 8.04274Z" fill="white"/>
</g>
<defs>
<clipPath id="clip0_14_2">
<rect width="148.75" height="28" fill="white"/>
</clipPath>
</defs>
</svg>
