<svg width="76" height="45" viewBox="0 0 76 45" fill="none" xmlns="http://www.w3.org/2000/svg">
<g clip-path="url(#clip0_6_2)">
<path d="M43.7452 0C43.7452 0 16.0921 14.3801 35.957 25.3206L37.0397 19.4479H31.912L36.0841 9.34415H42.3051L39.5546 15.0521H44.3594L36.2879 25.5012C36.6797 25.711 37.09 25.9209 37.5189 26.1254C37.7015 26.229 37.8445 26.3034 37.8657 26.2926L37.953 26.2449C39.7002 25.2834 53.548 16.9432 43.7452 0ZM37.6327 26.1811C37.6618 26.1945 37.6883 26.2076 37.7148 26.221C37.7201 26.229 37.6856 26.2104 37.6327 26.1811Z" fill="#FF9900"/>
<path d="M1.134 39.2936V24.7136H6.786V26.2256H3.168V31.0496H6.102V32.4896H3.168V37.8356H6.822V39.2936H1.134ZM8.30208 39.2936V28.8896H10.2281V29.9156C10.5761 29.5916 10.9601 29.3156 11.3801 29.0876C11.8001 28.8596 12.2621 28.7456 12.7661 28.7456C13.1861 28.7456 13.5041 28.8536 13.7201 29.0696C13.9481 29.2856 14.1041 29.5556 14.1881 29.8796C14.2841 30.2036 14.3321 30.5336 14.3321 30.8696V39.2936H12.4061V31.4276C12.4061 31.0556 12.3521 30.7676 12.2441 30.5636C12.1361 30.3596 11.9141 30.2576 11.5781 30.2576C11.3621 30.2576 11.1341 30.3236 10.8941 30.4556C10.6661 30.5756 10.4441 30.7256 10.2281 30.9056V39.2936H8.30208ZM19.0922 39.4376C18.2762 39.4376 17.6462 39.2816 17.2022 38.9696C16.7582 38.6456 16.4462 38.1776 16.2662 37.5656C16.0982 36.9416 16.0142 36.1796 16.0142 35.2796V32.9036C16.0142 31.9796 16.1042 31.2116 16.2842 30.5996C16.4642 29.9876 16.7762 29.5256 17.2202 29.2136C17.6762 28.9016 18.3002 28.7456 19.0922 28.7456C19.9682 28.7456 20.6102 28.9256 21.0182 29.2856C21.4382 29.6456 21.7142 30.1676 21.8462 30.8516C21.9782 31.5236 22.0442 32.3336 22.0442 33.2816V34.1276H17.9402V36.2156C17.9402 36.6356 17.9762 36.9776 18.0482 37.2416C18.1322 37.5056 18.2582 37.7036 18.4262 37.8356C18.6062 37.9556 18.8342 38.0156 19.1102 38.0156C19.3982 38.0156 19.6142 37.9496 19.7582 37.8176C19.9142 37.6736 20.0162 37.4756 20.0642 37.2236C20.1242 36.9596 20.1542 36.6536 20.1542 36.3056V35.6756H22.0262V36.0716C22.0262 37.1156 21.8042 37.9376 21.3602 38.5376C20.9162 39.1376 20.1602 39.4376 19.0922 39.4376ZM17.9402 33.0836H20.1542V32.1476C20.1542 31.7156 20.1302 31.3556 20.0822 31.0676C20.0342 30.7676 19.9322 30.5456 19.7762 30.4016C19.6322 30.2456 19.3982 30.1676 19.0742 30.1676C18.7622 30.1676 18.5222 30.2396 18.3542 30.3836C18.1982 30.5276 18.0902 30.7736 18.0302 31.1216C17.9702 31.4576 17.9402 31.9256 17.9402 32.5256V33.0836ZM23.8424 39.2936V28.8896H25.7684V30.3656C26.1524 29.7296 26.5364 29.3036 26.9204 29.0876C27.3044 28.8716 27.6884 28.7636 28.0724 28.7636C28.1204 28.7636 28.1624 28.7636 28.1984 28.7636C28.2464 28.7636 28.3064 28.7696 28.3784 28.7816V30.9056C28.2344 30.8456 28.0664 30.7976 27.8744 30.7616C27.6944 30.7136 27.5084 30.6896 27.3164 30.6896C27.0164 30.6896 26.7404 30.7616 26.4884 30.9056C26.2484 31.0376 26.0084 31.3016 25.7684 31.6976V39.2936H23.8424ZM32.2201 42.5516C31.5841 42.5516 31.0081 42.4796 30.4921 42.3356C29.9881 42.2036 29.5861 41.9936 29.2861 41.7056C28.9981 41.4176 28.8541 41.0396 28.8541 40.5716C28.8541 40.2116 28.9381 39.8936 29.1061 39.6176C29.2741 39.3536 29.4901 39.1256 29.7541 38.9336C30.0181 38.7416 30.2941 38.5916 30.5821 38.4836L31.4821 38.6096C31.3261 38.7536 31.1761 38.9036 31.0321 39.0596C30.8881 39.2036 30.7681 39.3536 30.6721 39.5096C30.5761 39.6776 30.5281 39.8576 30.5281 40.0496C30.5281 40.3616 30.6601 40.5956 30.9241 40.7516C31.2001 40.9076 31.6861 40.9856 32.3821 40.9856C33.0661 40.9856 33.5701 40.9016 33.8941 40.7336C34.2301 40.5776 34.3981 40.3256 34.3981 39.9776C34.3981 39.7616 34.3561 39.5816 34.2721 39.4376C34.1881 39.3056 34.0441 39.1976 33.8401 39.1136C33.6361 39.0296 33.3421 38.9696 32.9581 38.9336L30.6901 38.6456C30.2221 38.5856 29.8741 38.4356 29.6461 38.1956C29.4181 37.9556 29.3041 37.6916 29.3041 37.4036C29.3041 36.9716 29.4241 36.6056 29.6641 36.3056C29.9161 36.0056 30.2521 35.6696 30.6721 35.2976L31.3201 35.8016C31.2481 35.8976 31.1581 36.0356 31.0501 36.2156C30.9421 36.3836 30.8881 36.5516 30.8881 36.7196C30.8881 36.8516 30.9541 36.9596 31.0861 37.0436C31.2301 37.1276 31.4521 37.1816 31.7521 37.2056L33.4981 37.3676C34.3141 37.4396 34.9201 37.6856 35.3161 38.1056C35.7121 38.5256 35.9101 39.1256 35.9101 39.9056C35.9101 40.4816 35.7721 40.9676 35.4961 41.3636C35.2321 41.7596 34.8301 42.0536 34.2901 42.2456C33.7501 42.4496 33.0601 42.5516 32.2201 42.5516ZM32.2921 36.0896C31.5841 36.0896 31.0081 35.9336 30.5641 35.6216C30.1201 35.3096 29.7901 34.8776 29.5741 34.3256C29.3701 33.7736 29.2681 33.1436 29.2681 32.4356C29.2681 31.6316 29.3821 30.9596 29.6101 30.4196C29.8381 29.8676 30.1741 29.4536 30.6181 29.1776C31.0741 28.8896 31.6321 28.7456 32.2921 28.7456C32.9761 28.7456 33.5341 28.9196 33.9661 29.2676C34.3981 29.6036 34.7161 30.0536 34.9201 30.6176C35.1241 31.1816 35.2261 31.8056 35.2261 32.4896C35.2261 33.1976 35.1301 33.8276 34.9381 34.3796C34.7581 34.9196 34.4521 35.3396 34.0201 35.6396C33.6001 35.9396 33.0241 36.0896 32.2921 36.0896ZM32.2921 34.7036C32.5561 34.7036 32.7661 34.6556 32.9221 34.5596C33.0781 34.4516 33.1921 34.3016 33.2641 34.1096C33.3481 33.9176 33.4021 33.6836 33.4261 33.4076C33.4621 33.1196 33.4801 32.7956 33.4801 32.4356C33.4801 32.0756 33.4681 31.7516 33.4441 31.4636C33.4201 31.1756 33.3661 30.9356 33.2821 30.7436C33.1981 30.5396 33.0781 30.3836 32.9221 30.2756C32.7661 30.1676 32.5621 30.1136 32.3101 30.1136C32.0461 30.1136 31.8301 30.1676 31.6621 30.2756C31.5061 30.3716 31.3801 30.5216 31.2841 30.7256C31.2001 30.9176 31.1401 31.1576 31.1041 31.4456C31.0801 31.7336 31.0681 32.0636 31.0681 32.4356C31.0681 32.7596 31.0801 33.0596 31.1041 33.3356C31.1401 33.6116 31.2001 33.8516 31.2841 34.0556C31.3681 34.2596 31.4881 34.4216 31.6441 34.5416C31.8121 34.6496 32.0281 34.7036 32.2921 34.7036ZM34.8661 30.6356L34.4161 29.9156C34.5121 29.7476 34.7281 29.5376 35.0641 29.2856C35.4001 29.0336 35.7601 28.8236 36.1441 28.6556L36.6481 29.9156C36.4801 29.9516 36.2521 30.0176 35.9641 30.1136C35.6881 30.2096 35.4361 30.3116 35.2081 30.4196C34.9801 30.5156 34.8661 30.5876 34.8661 30.6356ZM37.3373 41.9036V40.4276C37.8053 40.4276 38.1773 40.4036 38.4533 40.3556C38.7293 40.3196 38.9273 40.2416 39.0473 40.1216C39.1673 40.0136 39.2273 39.8576 39.2273 39.6536C39.2273 39.5456 39.1853 39.3056 39.1013 38.9336C39.0173 38.5616 38.9273 38.1656 38.8313 37.7456L36.7433 28.8896H38.6873L40.0913 36.6656L41.4413 28.8896H43.3853L40.9013 39.8696C40.7933 40.3736 40.5953 40.7696 40.3073 41.0576C40.0193 41.3576 39.6473 41.5736 39.1913 41.7056C38.7473 41.8376 38.2073 41.9036 37.5713 41.9036H37.3373ZM44.7102 39.2936V24.7136H50.3442V26.1716H46.7442V31.0316H49.5342V32.4716H46.7442V39.2936H44.7102ZM51.7414 39.2936V24.7136H53.7754V37.8356H57.5014V39.2936H51.7414ZM61.543 39.4376C60.775 39.4376 60.169 39.2816 59.725 38.9696C59.281 38.6576 58.963 38.2136 58.771 37.6376C58.591 37.0616 58.501 36.3836 58.501 35.6036V32.5796C58.501 31.7996 58.591 31.1216 58.771 30.5456C58.963 29.9696 59.281 29.5256 59.725 29.2136C60.169 28.9016 60.775 28.7456 61.543 28.7456C62.311 28.7456 62.911 28.9016 63.343 29.2136C63.787 29.5256 64.099 29.9696 64.279 30.5456C64.471 31.1216 64.567 31.7996 64.567 32.5796V35.6036C64.567 36.3836 64.471 37.0616 64.279 37.6376C64.099 38.2136 63.787 38.6576 63.343 38.9696C62.911 39.2816 62.311 39.4376 61.543 39.4376ZM61.543 38.0156C61.915 38.0156 62.173 37.9076 62.317 37.6916C62.473 37.4756 62.563 37.1936 62.587 36.8456C62.623 36.4856 62.641 36.1136 62.641 35.7296V32.4716C62.641 32.0756 62.623 31.7036 62.587 31.3556C62.563 31.0076 62.473 30.7256 62.317 30.5096C62.173 30.2816 61.915 30.1676 61.543 30.1676C61.171 30.1676 60.907 30.2816 60.751 30.5096C60.595 30.7256 60.499 31.0076 60.463 31.3556C60.439 31.7036 60.427 32.0756 60.427 32.4716V35.7296C60.427 36.1136 60.439 36.4856 60.463 36.8456C60.499 37.1936 60.595 37.4756 60.751 37.6916C60.907 37.9076 61.171 38.0156 61.543 38.0156ZM67.5159 39.2936L65.8419 28.8896H67.4259L68.5059 36.5576L69.8919 28.8896H71.3679L72.7539 36.5216L73.8339 28.8896H75.4179L73.6899 39.2936H72.0699L70.6479 31.9496L69.2439 39.2936H67.5159Z" fill="white"/>
</g>
<defs>
<clipPath id="clip0_6_2">
<rect width="76" height="44.2936" fill="white"/>
</clipPath>
</defs>
</svg>
